<?xml version="1.0" encoding="UTF-8"?>
<svg id="logo-gliffy-reg" xmlns="http://www.w3.org/2000/svg" version="1.1" viewBox="0 0 633 200">
  <!-- Generator: Adobe Illustrator 29.5.1, SVG Export Plug-In . SVG Version: 2.1.0 Build 141)  -->
  <defs>
    <style>
      .st0 {
        fill: #4c00ff;
      }

      .st1 {
        fill: #00003a;
      }
    </style>
  </defs>
  <g>
    <g id="logo-helixcore-reg">
      <g>
        <path class="st1" d="M214.1,38.5c-2.1-1.2-3.7-2.8-4.8-5s-1.7-4.7-1.7-7.5.6-5.3,1.8-7.5,2.8-3.9,4.9-5.2c2.1-1.2,4.4-1.9,7-1.9,4.1,0,7.3,1.3,9.6,3.8s3.5,6,3.5,10.4v1.9s0,.2-.2.2h-20.6c-.1,0-.2,0-.2.2.2,2.3,1,4.1,2.4,5.5s3.3,2.1,5.7,2.1,3.9-.5,5.1-1.4c1.2-.9,2.1-2.1,2.7-3.5,0,0,.1-.1.2,0l4.8,1.8s.1,0,0,.2c-1,2.2-2.6,4.1-4.7,5.4-2.1,1.4-4.9,2.1-8.2,2.1s-5.3-.6-7.3-1.7h0ZM226.4,18c-1.3-1.3-3-1.9-5.2-1.9s-3.9.7-5.3,2c-1.4,1.3-2.2,3-2.5,5.2,0,.1,0,.2.2.2h14.8c.1,0,.2,0,.2-.2-.1-2.3-.8-4.1-2.1-5.3h0Z"/>
        <path class="st1" d="M238.2,12h5.4s.2,0,.2.2v4c0,.2.3.2.3,0,.5-1.3,1.2-2.3,2.2-3,1.3-1,3.1-1.4,5.6-1.4h.7s.2,0,.2.2v5.3s0,.2-.2.2h-2.4c-2.4,0-4.1.6-5,1.9s-1.4,3.4-1.4,6.3v14.1s0,.2-.2.2h-5.4s-.2,0-.2-.2V12.1s0-.2.2-.2h0Z"/>
        <path class="st1" d="M266.7,6.6c.2-.6.5-.9,1.1-1.1.5-.2,1.5-.2,2.9-.2h4.3s.2,0,.2-.2V.2q-.1-.2-.2-.2h-6.8c-1.9.1-3.4.5-4.4,1.1-1.1.6-1.8,1.6-2.3,2.8-.4,1.2-.7,2.9-.7,5.1v2.8s0,.2-.2.2h-4.5v4.9h4.5s.2,0,.2.2v22.6s0,.2.2.2h5.2s.2,0,.2-.2v-22.6s0-.2.2-.2h5.4s.2,0,.2-.2v-4.6s0-.2-.2-.2h-5.3s-.2,0-.2-.2v-2.3c0-1.4,0-2.4.3-2.9h-.1Z"/>
        <path class="st1" d="M279.9,38.4c-2.1-1.2-3.7-2.9-4.9-5.1-1.2-2.2-1.8-4.6-1.8-7.4s.6-5.3,1.8-7.5c1.2-2.2,2.8-3.9,5-5.1s4.5-1.8,7.2-1.8,5.1.6,7.2,1.8,3.8,2.9,5,5.1,1.8,4.7,1.8,7.5-.6,5.2-1.8,7.4c-1.2,2.2-2.9,3.9-5,5.1s-4.5,1.8-7.2,1.8-5.1-.6-7.2-1.8h-.1ZM293,32.9c1.5-1.6,2.2-3.9,2.2-6.8v-.2c0-2.9-.7-5.3-2.2-7-1.4-1.7-3.4-2.6-5.9-2.6s-4.5.9-6,2.6-2.2,4-2.2,7v.2c0,2.9.7,5.1,2.2,6.8,1.4,1.6,3.4,2.5,5.9,2.5s4.6-.8,6-2.5h0Z"/>
        <path class="st1" d="M304.4,12h5.4s.2,0,.2.2v4c0,.2.3.2.3,0,.5-1.3,1.2-2.3,2.2-3,1.3-1,3.1-1.4,5.6-1.4h.7s.2,0,.2.2v5.3s0,.2-.2.2h-2.4c-2.4,0-4.1.6-5,1.9s-1.4,3.4-1.4,6.3v14.1s0,.2-.2.2h-5.4s-.2,0-.2-.2V12.1s0-.2.2-.2h0Z"/>
        <path class="st1" d="M326.3,38.4c-2.1-1.2-3.7-2.9-4.8-5.1-1.1-2.2-1.7-4.7-1.7-7.5s.6-5.2,1.7-7.4c1.2-2.2,2.8-3.9,4.9-5.1,2.1-1.2,4.5-1.8,7.2-1.8s5.8.8,7.9,2.4,3.5,3.7,4.5,6.4c0,0,0,.2-.1.2l-5.2,1.7s-.2,0-.2-.1c-.5-1.8-1.3-3.2-2.4-4.2-1.1-1-2.6-1.5-4.6-1.5s-4.3.9-5.7,2.6c-1.4,1.7-2.2,4-2.2,6.8v.2c0,2.8.7,5.1,2.1,6.8,1.4,1.7,3.3,2.6,5.7,2.6s3.8-.5,5-1.5c1.1-1,1.9-2.5,2.5-4.4,0,0,.1-.1.2-.1l5.1,1.6s.1.1.1.2c-1,2.9-2.5,5.1-4.6,6.7s-4.8,2.4-8.1,2.4-5.1-.6-7.2-1.8h0Z"/>
        <path class="st1" d="M355.1,38.5c-2.1-1.2-3.7-2.8-4.8-5-1.1-2.2-1.7-4.7-1.7-7.5s.6-5.3,1.8-7.5c1.2-2.2,2.8-3.9,4.9-5.2,2.1-1.2,4.4-1.9,7-1.9,4.1,0,7.3,1.3,9.6,3.8,2.3,2.5,3.5,6,3.5,10.4v1.9s0,.2-.2.2h-20.6c-.1,0-.2,0-.2.2.2,2.3,1,4.1,2.4,5.5s3.3,2.1,5.7,2.1,3.9-.5,5.1-1.4,2.1-2.1,2.7-3.5c0,0,.1-.1.2,0l4.8,1.8s.1,0,0,.2c-1,2.2-2.6,4.1-4.7,5.4-2.1,1.4-4.9,2.1-8.2,2.1s-5.3-.6-7.3-1.7h0ZM367.3,18c-1.3-1.3-3-1.9-5.2-1.9s-3.9.7-5.3,2-2.2,3-2.5,5.2c0,.1,0,.2.2.2h14.8c.1,0,.2,0,.2-.2-.1-2.3-.8-4.1-2.1-5.3h-.1Z"/>
        <path class="st1" d="M203,18.1c-1.1-2.2-2.6-3.8-4.5-5s-4.1-1.7-6.5-1.7-3.7.4-5.2,1.2c-1.4.7-2.6,1.8-3.5,3-.1.1-.3,0-.3,0v-3.4s0-.2-.2-.2h-5.3s-.2,0-.2.2v38.5s0,.2.2.2h5.3s.2,0,.2-.2v-10s0-.2.2-.2h8.7c2.4,0,4.6-.6,6.5-1.8s3.4-2.9,4.5-5.1c1.1-2.2,1.6-4.8,1.6-7.7h0c0-3-.5-5.5-1.6-7.7h.1ZM198.6,25.9c0,3-.7,5.3-2.2,7s-3.4,2.5-5.8,2.5h-7.4s-.2,0-.2-.2v-12.5c.3-1.5.9-2.8,1.8-3.9,1.4-1.7,3.3-2.6,5.8-2.6s4.4.8,5.8,2.4c1.4,1.6,2.1,3.9,2.1,6.8v.4h0Z"/>
      </g>
    </g>
    <g>
      <path class="st1" d="M177.7,78.7h31.2c12.9,0,22.5,2.5,28.8,7.4s9.5,12.4,9.5,22.4-1.5,12.2-4.4,16.7-7.3,7.9-13.1,10.2-13,3.4-21.6,3.4h-12.9v32.8h-17.6v-92.9h.1ZM220.4,123.1c3.1-1.1,5.3-2.9,6.8-5.2,1.4-2.4,2.2-5.5,2.2-9.3,0-5.6-1.6-9.6-4.9-12-3.3-2.4-8.6-3.6-16.1-3.6h-13v32.1h12.7c5.1,0,9.2-.7,12.3-1.8v-.2Z"/>
      <path class="st1" d="M292.6,151h-45.3v-17.1l39.9-55.1h22l-45.8,57.9h29.4v-19.7l16.9-20.6v40.2h14.3v14.3h-14.3v20.7h-17.1v-20.7h0Z"/>
    </g>
  </g>
  <path class="st0" d="M134.1,184.5v-119.1c0-8.1-5.4-12-7.7-13.4s-8.5-4-15.4,0l-1.2.7-74.6,43.1h0l-2.4,1.4-.4.2-24.5,14.2c-7.1,4-7.9,10.6-7.9,13.3s.8,9.4,7.7,13.4l54.7,32c.2-.5.4-1,.7-1.5l12-20.7-30-17.7c-3.4-2-4.9-6-3.9-9.7.2-2.7,1.7-5.2,4.2-6.7l53.6-30.9c2.9-1.7,6.4-1.4,8.9.3,2.8,1.4,4.8,4.2,4.8,7.6v3.7l-16.8,9.7h0l-31.1,17.9,31.1,18v-17.4l16.8-9.7v40.5c0,1.7-.5,3.4-1.4,4.7,0,.1,0,.3-.2.4-2.3,4-7.5,5.4-11.5,3.1l-10-5.4-12,20.7c-.3.5-.6.9-1,1.3l34.2,19.3c7,4,13.1,1.3,15.4,0,2.3-1.3,7.7-5.3,7.7-13.4h.2Z"/>
  <g>
    <path class="st1" d="M357.4,78.7h29.5l20.3,67.9,21.6-67.9h28.6v93h-17.4v-77.7l-25.9,77.7h-15l-24.9-76.9v76.9h-16.8v-93Z"/>
    <path class="st1" d="M489.2,167.4c-6.5-4.1-11.6-9.7-15.3-17s-5.5-15.7-5.5-25.2,1.8-17.9,5.5-25.3c3.7-7.3,8.8-13,15.5-17,6.6-4,14.3-6,23-6s20.4,2.9,27.6,8.7c7.2,5.8,11.8,14.4,13.7,25.8h-18.2c-1.4-6.5-4-11.2-7.9-14.1-3.9-2.9-9-4.3-15.3-4.3s-9.8,1.3-13.7,3.8c-3.9,2.5-6.8,6.2-8.8,11-2,4.8-3,10.4-3,16.9v1.4c0,6.5,1,12.2,3,16.9,2,4.8,4.9,8.4,8.7,10.9,3.8,2.5,8.3,3.8,13.5,3.8s11.9-1.6,16-4.8c4-3.2,6.6-8.3,7.8-15.3h18.2c-1.7,12-6.3,20.9-13.7,27-7.5,6-17,9-28.7,9s-15.9-2-22.4-6.1Z"/>
    <path class="st1" d="M563.4,78.7h31.2c12.9,0,22.5,2.5,28.8,7.4,6.3,4.9,9.5,12.4,9.5,22.4s-1.5,12.2-4.4,16.7c-2.9,4.5-7.3,7.9-13.1,10.2-5.8,2.3-13,3.4-21.6,3.4h-12.9v32.8h-17.6v-93ZM606.1,123.1c3.1-1.1,5.3-2.9,6.8-5.3,1.4-2.4,2.2-5.5,2.2-9.3,0-5.6-1.6-9.6-4.9-12-3.3-2.4-8.6-3.6-16.1-3.6h-13v32.1h12.7c5.1,0,9.2-.7,12.3-1.8Z"/>
  </g>
</svg>